# xmcd CD database file
#
# Track frame offsets:
#	150
#	24319
#	38768
#	59872
#	78163
#	96356
#	112252
#	126674
#	141407
#	162125
#	187643
#	212288
#
# Disc length: 3329 seconds
#
# Revision: 1
# Processed by: cddbd v1.5.1PL0 Copyright (c) Steve Scherf et al.
# Submitted via: CDex 1.51
#
DISCID=a50cff0c
DTITLE=Calexico - Live At The Roskilde Festival July 1, 2000
DYEAR=2000
DGENRE=Country
TTITLE0=Wash
TTITLE1=The Ride Pt. II
TTITLE2=Service And Repair
TTITLE3=Tulsa Telphone Book
TTITLE4=Minas De Cobre
TTITLE5=Ballad Of Cable Hogue
TTITLE6=Tema De Mariachi
TTITLE7=El Picador
TTITLE8=Trigger
TTITLE9=Stray
TTITLE10=El Cascabel
TTITLE11=Crystal Frontier
EXTD=YEAR: 2000
EXTT0=
EXTT1=
EXTT2=
EXTT3=
EXTT4=
EXTT5=
EXTT6=
EXTT7=
EXTT8=
EXTT9=
EXTT10=
EXTT11=
PLAYORDER=
